# xmcd
#
# Track frame offsets:
#	150
#	17837
#	34875
#	52200
#
# Disc length: 923 seconds
#
# Revision: 0
# Processed by: cddbd v1.5.2PL0 Copyright (c) Steve Scherf et al.
# Submitted via: EasyCDDAExtractor 16.0.6.1
#
DISCID=32039904
DTITLE=Andreas Elsholz - Weil Ich Dich Liebe
DYEAR=1900
DGENRE=Blues
TTITLE0=Weil Ich Dich Liebe, radio edit
TTITLE1=Weil Ich Dich Liebe, soft drums
TTITLE2=Weil Ich Dich Liebe, instrumental
TTITLE3=Du Bist Die Insel
EXTD=
EXTT0=
EXTT1=
EXTT2=
EXTT3=
PLAYORDER=
